# AST/ASF file generated using VICON BodyLanguage
# -----------------------------------------------
:version 1.10
:name VICON
:units
  mass 1.0
  length 0.45
  angle deg
:documentation
   .ast/.asf automatically generated from VICON data using
   VICON BodyBuilder and BodyLanguage model FoxedUp or BRILLIANT.MOD
:root
   order TX TY TZ RX RY RZ
   axis XYZ
   position 0 0 0  
   orientation 0 0 0 
:bonedata
  begin
     id 1 
     name lhipjoint
     direction 0.541323 -0.757556 0.364798 
     length 2.47576 
     axis 0 0 0  XYZ
  end
  begin
     id 2 
     name lfemur
     direction 0.34202 -0.939693 0  
     length 7.46493  
     axis 0 0 20  XYZ
    dof rx ry rz
    limits (-160.0 20.0)
           (-70.0 70.0)
           (-60.0 70.0)
  end
  begin
     id 3 
     name ltibia
     direction 0.34202 -0.939693 0   
     length 7.73805   
     axis 0 0 20   XYZ
    dof rx
    limits (-10.0 170.0)
  end
  begin
     id 4 
     name lfoot
     direction 0.107174 -0.294458 0.949636   
     length 2.25864   
     axis -90 7.62852e-016 20   XYZ
    dof rx rz
    limits (-45.0 90.0)
           (-70.0 20.0)
  end
  begin
     id 5 
     name ltoes
     direction 1.53606e-011 -4.21934e-011 1   
     length 1.12451   
     axis -90 7.62852e-016 20   XYZ
    dof rx
    limits (-90.0 20.0)
  end
  begin
     id 6 
     name rhipjoint
     direction -0.524745 -0.766967 0.36933   
     length 2.44538  
     axis 0 0 0  XYZ 
  end
  begin
     id 7 
     name rfemur
     direction -0.34202 -0.939693 0   
     length 7.61604   
     axis 0 0 -20   XYZ
    dof rx ry rz
    limits (-160.0 20.0)
           (-70.0 70.0)
           (-70.0 60.0)
  end
  begin
     id 8 
     name rtibia
     direction -0.34202 -0.939693 0   
     length 7.61056   
     axis 0 0 -20   XYZ
    dof rx
    limits (-10.0 170.0)
 end
 begin
     id 9 
     name rfoot
     direction -0.12616 -0.346623 0.929482   
     length 2.46372  
     axis -90 -7.62852e-016 -20   XYZ
    dof rx rz
    limits (-45.0 90.0)
           (-20.0 70.0)
  end
  begin
     id 10 
     name rtoes
     direction -1.53531e-011 -4.22004e-011 1   
     length 1.21611   
     axis -90 -7.62852e-016 -20   XYZ
    dof rx
    limits (-90.0 20.0)
  end
  begin
     id 11 
     name lowerback
     direction -0.000778023 0.997293 -0.0735223   
     length 2.06139   
     axis 0 0 0   XYZ
    dof rx ry rz
    limits (-20.0 45.0)
           (-30.0 30.0)
           (-30.0 30.0)
  end
  begin
     id 12 
     name upperback
     direction 0.0222598 0.999722 -0.0078355   
     length 2.06383   
     axis 0 0 0   XYZ
    dof rx ry rz
    limits (-20.0 45.0)
           (-30.0 30.0)
           (-30.0 30.0)
  end
  begin
     id 13 
     name thorax
     direction 0.0219654 0.999405 0.0265994   
     length 2.07163   
     axis 0 0 0   XYZ
    dof rx ry rz
    limits (-20.0 45.0)
           (-30.0 30.0)
           (-30.0 30.0)
  end
  begin
     id 14 
     name lowerneck
     direction 0.0213282 0.988147 0.15202   
     length 1.75969   
     axis 0 0 0   XYZ
    dof rx ry rz
    limits (-20.0 45.0)
           (-30.0 30.0)
           (-30.0 30.0)
  end
  begin
     id 15 
     name upperneck
     direction -0.0546456 0.982624 -0.177379   
     length 1.79244   
     axis 0 0 0   XYZ
    dof rx ry rz
    limits (-20.0 45.0)
           (-30.0 30.0)
           (-30.0 30.0)
  end
  begin
     id 16
     name head
     direction -0.0199987 0.996855 -0.076686  
     length 1.80555  
     axis 0 0 0   XYZ
    dof rx ry rz
    limits (-20.0 45.0)
           (-30.0 30.0)
           (-30.0 30.0)
  end
  begin
     id 17 
     name lclavicle
     direction 0.929565 0.363219 -0.063096  
     length 3.55722  
     axis 0 0 0   XYZ
    dof ry rz
    limits (-20.0 10.0)
           (0.0 20.0)
  end
  begin
     id 18 
     name lhumerus
     direction 1 -4.48993e-011 -2.36203e-027   
     length 4.92785   
     axis 180 -30 -90   XYZ
    dof rx ry rz
    limits (-60.0 90.0)
           (-90.0 90.0)
           (-90.0 90.0)
  end
  begin
     id 19
     name lradius
     direction 1 -4.48947e-011 2.02997e-027   
     length 3.44052   
     axis 180 -30 -90   XYZ
    dof rx
    limits (-10.0 170.0)
  end
  begin
     id 20
     name lwrist
     direction 1 -4.48962e-011 1.45991e-027   
     length 1.72026   
     axis 1.49639e-024 90 90   XYZ
    dof ry
    limits (-180.0 0.0)
 end
  begin
     id 21 
     name lhand
     direction 1 -4.48984e-011 2.91906e-027   
     length 0.654326   
     axis -1.863e-015 90 90   XYZ
    dof rx rz
    limits (-90.0 90.0)
           (-45.0 45.0)
  end
  begin
     id 22 
     name lfingers
     direction 1 -4.48961e-011 5.83968e-027   
     length 0.527534   
     axis -3.72598e-015 90 90   XYZ
    dof rx
    limits (0.0 90.0)
  end
  begin
     id 23
     name lthumb
     direction 0.707107 -6.34963e-011 0.707107   
     length 0.757437   
     axis -90 45 -6.68868e-015   XYZ
    dof rx rz
    limits (-45.0 45.0)
           (-45.0 45.0)
  end
  begin
     id 24 
     name rclavicle
     direction -0.902944 0.422599 -0.0781198   
     length 3.54432  
     axis 0 0 0   XYZ 
    dof ry rz
    limits (-10.0 20.0)
           (-20.0 0.0)
  end
  begin
     id 25 
     name rhumerus
     direction -1 -4.48953e-011 -4.75835e-028  
     length 5.09181   
     axis 180 30 90   XYZ
    dof rx ry rz
    limits (-90.0 60.0)
           (-90.0 90.0)
           (-90.0 90.0)
  end
  begin
     id 26 
     name rradius
     direction -1 -4.48986e-011 -3.25889e-027   
     length 3.49865   
     axis 180 30 90   XYZ
    dof rx
    limits (-10.0 170.0)
  end
  begin
     id 27 
     name rwrist
     direction -1 -4.48963e-011 1.45989e-027   
     length 1.74933   
     axis 1.49639e-024 -90 -90   XYZ
    dof ry
    limits (-180.0 0.0)
  end
  begin
     id 28
     name rhand
     direction -1 -4.49003e-011 2.91844e-027   
     length 0.66641   
     axis -1.863e-015 -90 -90   XYZ
    dof rx rz
    limits (-90.0 90.0)
           (-45.0 45.0)
  end
  begin
     id 29
     name rfingers
     direction -1 -4.48973e-011 5.83886e-027   
     length 0.537277   
     axis -3.72598e-015 -90 -90   XYZ
    dof rx
    limits (0.0 90.0)
  end
  begin
     id 30
     name rthumb
     direction -0.707107 -6.34976e-011 0.707107   
     length 0.771425   
     axis -90 -45 6.68868e-015   XYZ
    dof rx rz
    limits (-45.0 45.0)
           (-45.0 45.0)
  end
:hierarchy
  begin
    root lhipjoint rhipjoint lowerback
    lhipjoint lfemur
    lfemur ltibia
    ltibia lfoot
    lfoot ltoes
    rhipjoint rfemur
    rfemur rtibia
    rtibia rfoot
    rfoot rtoes
    lowerback upperback
    upperback thorax
    thorax lowerneck lclavicle rclavicle
    lowerneck upperneck
    upperneck head
    lclavicle lhumerus
    lhumerus lradius
    lradius lwrist
    lwrist lhand lthumb
    lhand lfingers
    rclavicle rhumerus
    rhumerus rradius
    rradius rwrist
    rwrist rhand rthumb
    rhand rfingers
  end

#!OML:ASF H:\LiuWeirdWalks\Patient Classification 1\Patient 1\Session 1\male.ASF
:FULLY-SPECIFIED
:DEGREES
1
root 0.0431673 17.9315 -29.8205 2.06691 2.84377 -1.25921
lowerback 3.48155 -0.876882 -1.90852
upperback -2.03361 -1.16686 2.79599
thorax -3.95817 -0.489303 4.04785
lowerneck -21.9536 1.75998 9.08438
upperneck 17.2831 1.26756 -8.00833
head 9.14929 0.295783 -4.10238
rclavicle 7.85821e-015 -3.18055e-015
rhumerus -38.5241 -17.2194 -68.6082
rradius 24.3992
rwrist -1.67563
rhand -13.2371 -1.98638
rfingers 7.12502
rthumb 12.8646 -31.5699
lclavicle 7.85821e-015 -3.18055e-015
lhumerus -35.8128 5.49927 83.065
lradius 25.9534
lwrist 5.55171
lhand -13.7854 0.275941
lfingers 7.12502
lthumb 12.336 29.892
rfemur -11.5864 -4.3562 21.7514
rtibia 30.6324
rfoot -15.8439 -16.7758
rtoes 1.19684
lfemur -8.60905 -1.56084 -16.3455
ltibia 26.8201
lfoot -11.5422 16.3843
ltoes -6.54544
2
root 0.0372227 17.9308 -29.8089 2.04294 2.8659 -1.27364
lowerback 3.45424 -0.806808 -1.95439
upperback -0.947541 -1.08759 2.82623
thorax -2.8229 -0.483787 4.07997
lowerneck -26.013 1.91497 8.46909
upperneck 18.2807 1.26057 -7.46658
head 10.2047 0.255969 -3.87449
rclavicle 3.60297e-015 -4.09496e-014
rhumerus -36.2646 -18.4628 -69.0567
rradius 24.1811
rwrist -1.35109
rhand -13.1302 -1.97661
rfingers 7.12502
rthumb 12.9677 -31.5536
lclavicle 3.60297e-015 -4.09496e-014
lhumerus -33.1566 5.49868 83.4449
lradius 25.4529
lwrist 5.43755
lhand -13.9686 0.744073
lfingers 7.12502
lthumb 12.1594 30.3707
rfemur -11.4949 -4.3397 21.7958
rtibia 30.6036
rfoot -15.9219 -16.8335
rtoes 1.254
lfemur -8.55649 -1.67282 -16.3369
ltibia 26.7866
lfoot -11.3451 16.6022
ltoes -6.6614
3
root 0.0349164 17.9301 -29.7986 2.01237 2.75039 -1.27143
lowerback 3.35243 -0.684635 -1.92104
upperback 0.267153 -0.938019 2.80944
thorax -1.52747 -0.448678 4.01659
lowerneck -30.5065 2.05049 8.14181
upperneck 19.3528 1.18416 -7.22501
head 11.3695 0.17201 -3.82592
rclavicle 2.28105e-014 -1.70955e-014
rhumerus -33.7272 -19.9539 -69.6297
rradius 23.881
rwrist -0.953936
rhand -13.0212 -1.85972
rfingers 7.12502
rthumb 13.0728 -31.43
lclavicle 2.28105e-014 -1.70955e-014
lhumerus -30.6043 5.66374 83.809
lradius 25.1722
lwrist 5.19621
lhand -13.7826 0.704898
lfingers 7.12502
lthumb 12.3387 30.3208
rfemur -11.4207 -4.37622 21.7905
rtibia 30.5823
rfoot -15.893 -16.7277
rtoes 1.12114
lfemur -8.46827 -1.74836 -16.3678
ltibia 26.7896
lfoot -11.3574 16.8585
ltoes -6.51602
4
root 0.0334263 17.9306 -29.7903 2.02943 2.54918 -1.29003
lowerback 3.19545 -0.780043 -1.9184
upperback -0.705104 -1.05173 2.82621
thorax -2.43066 -0.476736 4.04823
lowerneck -26.513 1.93106 8.46316
upperneck 18.4204 1.23481 -7.41265
head 10.3396 0.244128 -3.867
rclavicle 3.97569e-015 -2.98177e-014
rhumerus -35.9537 -18.6356 -69.1761
rradius 24.2781
rwrist -1.44305
rhand -13.1711 -1.73815
rfingers 7.12502
rthumb 12.9282 -31.3177
lclavicle 3.97569e-015 -2.98177e-014
lhumerus -33.0417 5.47431 83.5956
lradius 25.4752
lwrist 5.03969
lhand -14.1188 0.325138
lfingers 7.12502
lthumb 12.0145 29.9603
rfemur -11.4232 -4.35127 21.8045
rtibia 30.5586
rfoot -15.8588 -16.5797
rtoes 1.0843
lfemur -8.41301 -1.79327 -16.3766
ltibia 26.7895
lfoot -11.3356 17.1055
ltoes -6.43182
5
root 0.0300896 17.9307 -29.7809 2.03579 2.41252 -1.31804
lowerback 3.07773 -0.786122 -1.90527
upperback -0.652994 -1.05894 2.84289
thorax -2.31005 -0.483242 4.05524
lowerneck -26.5636 1.94661 8.44474
upperneck 18.483 1.25001 -7.36592
head 10.3721 0.255505 -3.84653
rclavicle 1.75179e-014 -7.95139e-015
rhumerus -35.9239 -18.5809 -69.235
rradius 24.3694
rwrist -1.53324
rhand -13.203 -1.587
rfingers 7.12502
rthumb 12.8975 -31.1685
lclavicle 1.75179e-014 -7.95139e-015
lhumerus -33.0504 5.42339 83.6615
lradius 25.4681
lwrist 4.89021
lhand -14.2707 0.214944
lfingers 7.12502
lthumb 11.8681 29.8586
rfemur -11.3981 -4.31286 21.8434
rtibia 30.5359
rfoot -15.8449 -16.5092
rtoes 1.03771
lfemur -8.36267 -1.84157 -16.3611
ltibia 26.7976
lfoot -11.3278 17.3074
ltoes -6.35631
6
root 0.0265678 17.9312 -29.7716 2.05104 2.27581 -1.34603
lowerback 2.96639 -0.798995 -1.89472
upperback -0.69979 -1.07422 2.85575
thorax -2.29434 -0.490597 4.06176
lowerneck -26.2912 1.94729 8.47599
upperneck 18.4989 1.25969 -7.35379
head 10.3313 0.268102 -3.84313
rclavicle 2.87244e-014 -2.54444e-014
rhumerus -36.1054 -18.3951 -69.2685
rradius 24.5096
rwrist -1.67709
rhand -13.2409 -1.41491
rfingers 7.12502
rthumb 12.861 -30.9987
lclavicle 2.87244e-014 -2.54444e-014
lhumerus -33.2674 5.34373 83.6994
lradius 25.4939
lwrist 4.74752
lhand -14.445 0.0618872
lfingers 7.12502
lthumb 11.7 29.7152
rfemur -11.3842 -4.26282 21.8847
rtibia 30.5162
rfoot -15.8319 -16.4481
rtoes 0.993958
lfemur -8.3166 -1.87089 -16.3389
ltibia 26.8019
lfoot -11.3413 17.4674
ltoes -6.2655
7
root 0.022897 17.9316 -29.7623 2.07241 2.15625 -1.36242
lowerback 2.86578 -0.82317 -1.90827
upperback -0.781063 -1.10499 2.87553
thorax -2.31833 -0.504157 4.09056
lowerneck -25.9365 1.9493 8.50803
upperneck 18.518 1.28141 -7.35412
head 10.2784 0.285999 -3.84182
rclavicle -5.2181e-016 -2.14687e-014
rhumerus -36.3417 -18.1214 -69.3057
rradius 24.6839
rwrist -1.86497
rhand -13.2683 -1.26371
rfingers 7.12502
rthumb 12.8345 -30.8491
lclavicle -5.2181e-016 -2.14687e-014
lhumerus -33.532 5.27626 83.7333
lradius 25.5287
lwrist 4.62282
lhand -14.6468 -0.0601043
lfingers 7.12502
lthumb 11.5054 29.6041
rfemur -11.3752 -4.21194 21.9152
rtibia 30.4989
rfoot -15.8254 -16.4021
rtoes 0.951033
lfemur -8.27278 -1.88686 -16.3219
ltibia 26.7953
lfoot -11.362 17.5811
ltoes -6.18653
8
root 0.0194105 17.9322 -29.7532 2.09667 2.06033 -1.35902
lowerback 2.78504 -0.846372 -1.94842
upperback -0.794415 -1.13642 2.89689
thorax -2.28288 -0.519627 4.13543
lowerneck -25.9095 1.96713 8.51327
upperneck 18.6437 1.30886 -7.34404
head 10.3217 0.301913 -3.83772
rclavicle -7.45443e-017 -2.46493e-014
rhumerus -36.4086 -17.9094 -69.3822
rradius 24.8525
rwrist -2.05374
rhand -13.2747 -1.14993
rfingers 7.12502
rthumb 12.8283 -30.7357
lclavicle -7.45443e-017 -2.46493e-014
lhumerus -33.6105 5.23209 83.7907
lradius 25.5496
lwrist 4.5288
lhand -14.8604 -0.106935
lfingers 7.12502
lthumb 11.2994 29.5687
rfemur -11.3695 -4.17794 21.9234
rtibia 30.4867
rfoot -15.826 -16.3625
rtoes 0.902962
lfemur -8.23104 -1.89477 -16.3211
ltibia 26.7774
lfoot -11.386 17.6513
ltoes -6.12146
9
root 0.0165779 17.9326 -29.7443 2.11695 1.96817 -1.34454
lowerback 2.71321 -0.866193 -1.99907
upperback -0.808494 -1.16378 2.91532
thorax -2.25335 -0.532828 4.18317
lowerneck -25.8906 1.98026 8.51606
upperneck 18.7754 1.32972 -7.33181
head 10.3681 0.31483 -3.83371
rclavicle -8.29926e-015 1.47101e-014
rhumerus -36.4749 -17.7139 -69.4484
rradius 25.0232
rwrist -2.23648
rhand -13.2614 -1.06418
rfingers 7.12502
rthumb 12.8412 -30.6492
lclavicle -8.29926e-015 1.47101e-014
lhumerus -33.6813 5.19923 83.8435
lradius 25.5719
lwrist 4.42852
lhand -15.1007 -0.138998
lfingers 7.12502
lthumb 11.0676 29.5492
rfemur -11.3615 -4.15845 21.9151
rtibia 30.4776
rfoot -15.8281 -16.3143
rtoes 0.846964
lfemur -8.18205 -1.89315 -16.3312
ltibia 26.7488
lfoot -11.4091 17.6999
ltoes -6.07414
10
root 0.0140905 17.9329 -29.7352 2.12576 1.89446 -1.32962
lowerback 2.65402 -0.894452 -2.05556
upperback -0.827509 -1.20241 2.94175
thorax -2.23468 -0.55128 4.24334
lowerneck -25.8535 1.99586 8.51254
upperneck 18.9042 1.3594 -7.32574
head 10.411 0.330783 -3.82926
rclavicle -1.1368e-014 2.14687e-014
rhumerus -36.5449 -17.4927 -69.508
rradius 25.1993
rwrist -2.43524
rhand -13.2355 -1.0151
rfingers 7.12502
rthumb 12.8662 -30.5985
lclavicle -1.1368e-014 2.14687e-014
lhumerus -33.763 5.19452 83.895
lradius 25.603
lwrist 4.3702
lhand -15.3314 -0.167901
lfingers 7.12502
lthumb 10.8451 29.5321
rfemur -11.3372 -4.15206 21.9051
rtibia 30.4662
rfoot -15.8363 -16.2726
rtoes 0.791951
lfemur -8.12202 -1.88692 -16.3374
ltibia 26.715
lfoot -11.433 17.7201
ltoes -6.03958
11
root 0.012121 17.933 -29.7259 2.12273 1.82218 -1.32304
lowerback 2.60987 -0.924575 -2.09441
upperback -0.853526 -1.2429 2.96669
thorax -2.23179 -0.570527 4.29246
lowerneck -25.7857 2.00753 8.50521
upperneck 19.0172 1.38571 -7.31404
head 10.4425 0.34591 -3.82191
rclavicle 1.33434e-014 -7.95139e-015
rhumerus -36.6293 -17.2851 -69.5585
rradius 25.3654
rwrist -2.61269
rhand -13.2039 -0.950091
rfingers 7.12502
rthumb 12.8966 -30.5316
lclavicle 1.33434e-014 -7.95139e-015
lhumerus -33.8622 5.20447 83.9311
lradius 25.6362
lwrist 4.34026
lhand -15.5536 -0.244841
lfingers 7.12502
lthumb 10.6308 29.4663
rfemur -11.2965 -4.1493 21.9016
rtibia 30.4472
rfoot -15.8401 -16.2324
rtoes 0.731336
lfemur -8.0514 -1.87563 -16.3342
ltibia 26.6828
lfoot -11.456 17.7303
ltoes -6.03723
